<svg xmlns="http://www.w3.org/2000/svg" xmlns:xlink="http://www.w3.org/1999/xlink" width="1920" zoomAndPan="magnify" viewBox="0 0 1440 809.999993" height="1080" preserveAspectRatio="xMidYMid meet" version="1.0"><defs><clipPath id="60ad4ae22d"><path d="M 287 0 L 1093.3125 0 L 1093.3125 810 L 287 810 Z M 287 0 " clip-rule="nonzero"/></clipPath><clipPath id="2d0b459723"><path d="M 283.3125 621 L 472 621 L 472 810 L 283.3125 810 Z M 283.3125 621 " clip-rule="nonzero"/></clipPath></defs><path fill="#ffffff" d="M 377.476562 350.96875 L 448.8125 350.96875 C 463.628906 350.96875 475.78125 338.820312 475.78125 324 C 475.78125 309.179688 463.628906 297.03125 448.8125 297.03125 L 377.476562 297.03125 C 362.5625 297.03125 350.507812 309.179688 350.507812 324 C 350.414062 338.820312 362.472656 350.96875 377.476562 350.96875 Z M 377.476562 314.980469 L 448.8125 314.980469 C 453.78125 314.980469 457.832031 319.03125 457.832031 324 C 457.832031 328.96875 453.78125 333.019531 448.8125 333.019531 L 377.476562 333.019531 C 372.503906 333.019531 368.453125 328.96875 368.453125 324 C 368.453125 319.03125 372.503906 314.980469 377.476562 314.980469 Z M 377.476562 314.980469 " fill-opacity="1" fill-rule="nonzero"/><path fill="#ffffff" d="M 377.476562 440.988281 L 448.8125 440.988281 C 463.628906 440.988281 475.78125 428.839844 475.78125 414.019531 C 475.78125 399.199219 463.628906 387.050781 448.8125 387.050781 L 377.476562 387.050781 C 362.5625 387.050781 350.507812 399.199219 350.507812 414.019531 C 350.414062 428.839844 362.472656 440.988281 377.476562 440.988281 Z M 377.476562 405 L 448.8125 405 C 453.78125 405 457.832031 409.050781 457.832031 414.019531 C 457.832031 418.992188 453.78125 423.039062 448.8125 423.039062 L 377.476562 423.039062 C 372.503906 423.039062 368.453125 418.992188 368.453125 414.019531 C 368.453125 409.050781 372.503906 405 377.476562 405 Z M 377.476562 405 " fill-opacity="1" fill-rule="nonzero"/><path fill="#ffffff" d="M 627.839844 476.980469 L 377.476562 476.980469 C 362.5625 476.980469 350.507812 489.128906 350.507812 503.949219 C 350.507812 518.769531 362.5625 530.917969 377.476562 530.917969 L 627.839844 530.917969 C 642.660156 530.917969 654.808594 518.769531 654.808594 503.949219 C 654.808594 489.128906 642.660156 476.980469 627.839844 476.980469 Z M 627.839844 512.96875 L 377.476562 512.96875 C 372.503906 512.96875 368.453125 508.917969 368.453125 503.949219 C 368.453125 498.976562 372.503906 494.929688 377.476562 494.929688 L 627.839844 494.929688 C 632.808594 494.929688 636.859375 498.976562 636.859375 503.949219 C 636.859375 508.917969 632.808594 512.96875 627.839844 512.96875 Z M 627.839844 512.96875 " fill-opacity="1" fill-rule="nonzero"/><path fill="#ffffff" d="M 824.816406 504.039062 C 824.816406 489.222656 812.667969 477.070312 797.847656 477.070312 L 717.492188 477.070312 C 702.671875 477.070312 690.523438 489.222656 690.523438 504.039062 C 690.523438 518.859375 702.671875 531.011719 717.492188 531.011719 L 797.847656 531.011719 C 812.667969 531.011719 824.816406 518.859375 824.816406 504.039062 Z M 708.472656 504.039062 C 708.472656 499.070312 712.519531 495.019531 717.492188 495.019531 L 797.847656 495.019531 C 802.816406 495.019531 806.867188 499.070312 806.867188 504.039062 C 806.867188 509.011719 802.816406 513.0625 797.847656 513.0625 L 717.492188 513.0625 C 712.519531 512.96875 708.472656 508.917969 708.472656 504.039062 Z M 708.472656 504.039062 " fill-opacity="1" fill-rule="nonzero"/><path fill="#ffffff" d="M 941.253906 576.019531 L 1012.589844 576.019531 C 1027.5 576.019531 1039.558594 563.871094 1039.558594 549.050781 C 1039.558594 534.230469 1027.5 522.082031 1012.589844 522.082031 L 941.253906 522.082031 C 926.433594 522.082031 914.285156 534.230469 914.285156 549.050781 C 914.191406 563.871094 926.34375 576.019531 941.253906 576.019531 Z M 941.253906 540.03125 L 1012.589844 540.03125 C 1017.652344 540.03125 1021.609375 544.082031 1021.609375 549.050781 C 1021.609375 554.023438 1017.652344 558.070312 1012.589844 558.070312 L 941.253906 558.070312 C 936.285156 558.070312 932.234375 554.023438 932.234375 549.050781 C 932.234375 544.082031 936.285156 540.03125 941.253906 540.03125 Z M 941.253906 540.03125 " fill-opacity="1" fill-rule="nonzero"/><path fill="#ffffff" d="M 941.253906 666.039062 L 1012.589844 666.039062 C 1027.5 666.039062 1039.558594 653.890625 1039.558594 639.070312 C 1039.558594 624.253906 1027.5 612.101562 1012.589844 612.101562 L 941.253906 612.101562 C 926.433594 612.101562 914.285156 624.253906 914.285156 639.070312 C 914.191406 653.890625 926.34375 666.039062 941.253906 666.039062 Z M 941.253906 629.960938 L 1012.589844 629.960938 C 1017.652344 629.960938 1021.609375 634.007812 1021.609375 638.980469 C 1021.609375 643.949219 1017.652344 648 1012.589844 648 L 941.253906 648 C 936.285156 648 932.234375 643.949219 932.234375 638.980469 C 932.234375 634.007812 936.285156 629.960938 941.253906 629.960938 Z M 941.253906 629.960938 " fill-opacity="1" fill-rule="nonzero"/><path fill="#ffffff" d="M 672.757812 666.039062 L 717.308594 666.039062 C 732.21875 666.039062 744.277344 653.890625 744.277344 639.070312 C 744.277344 624.253906 732.21875 612.101562 717.308594 612.101562 L 672.757812 612.101562 C 657.9375 612.101562 645.789062 624.253906 645.789062 639.070312 C 645.789062 653.890625 657.9375 666.039062 672.757812 666.039062 Z M 672.757812 629.960938 L 717.308594 629.960938 C 722.277344 629.960938 726.328125 634.007812 726.328125 638.980469 C 726.328125 643.949219 722.277344 648 717.308594 648 L 672.757812 648 C 667.785156 648 663.738281 643.949219 663.738281 638.980469 C 663.738281 634.007812 667.785156 629.960938 672.757812 629.960938 Z M 672.757812 629.960938 " fill-opacity="1" fill-rule="nonzero"/><path fill="#ffffff" d="M 1012.589844 702.03125 L 672.757812 702.03125 C 657.9375 702.03125 645.789062 714.179688 645.789062 729 C 645.789062 743.820312 657.9375 755.96875 672.757812 755.96875 L 1012.589844 755.96875 C 1027.5 755.96875 1039.558594 743.820312 1039.558594 729 C 1039.558594 714.179688 1027.5 702.03125 1012.589844 702.03125 Z M 1012.589844 738.019531 L 672.757812 738.019531 C 667.785156 738.019531 663.738281 733.96875 663.738281 729 C 663.738281 724.03125 667.785156 719.980469 672.757812 719.980469 L 1012.589844 719.980469 C 1017.652344 719.980469 1021.609375 724.03125 1021.609375 729 C 1021.609375 733.96875 1017.652344 738.019531 1012.589844 738.019531 Z M 1012.589844 738.019531 " fill-opacity="1" fill-rule="nonzero"/><g clip-path="url(#60ad4ae22d)"><path fill="#ffffff" d="M 1070.667969 350.96875 C 1083.1875 350.96875 1093.3125 340.84375 1093.3125 328.234375 L 1093.3125 22.734375 C 1093.3125 10.125 1083.1875 0 1070.667969 0 L 516.1875 0 C 503.761719 0 493.636719 10.125 493.636719 22.734375 L 493.636719 243 L 310.375 243 C 297.949219 243 287.824219 253.125 287.824219 265.734375 L 287.824219 571.234375 C 287.824219 583.84375 297.949219 593.96875 310.375 593.96875 L 592.035156 593.96875 L 592.035156 636.035156 C 592.035156 641.28125 588.902344 645.976562 584.117188 647.90625 L 523.644531 673.128906 C 515.636719 676.441406 510.390625 684.265625 510.390625 693.011719 C 510.390625 701.753906 515.636719 709.578125 523.644531 712.890625 L 584.117188 738.113281 C 588.902344 740.136719 592.035156 744.738281 592.035156 749.988281 L 592.035156 784.410156 C 592.035156 798.585938 603.445312 810.09375 617.53125 810.09375 L 1072.972656 810.09375 C 1084.199219 810.09375 1093.3125 799.96875 1093.3125 787.355469 L 1093.3125 481.765625 C 1093.3125 469.15625 1084.199219 459.03125 1072.972656 459.03125 L 887.5 459.03125 L 887.5 350.96875 Z M 310.375 576.019531 C 307.890625 576.019531 305.773438 573.902344 305.773438 571.234375 L 305.773438 265.734375 C 305.773438 263.15625 307.796875 260.949219 310.375 260.949219 L 493.636719 260.949219 L 493.636719 421.382812 C 493.636719 430.21875 498.605469 438.042969 506.523438 441.910156 C 509.652344 443.382812 512.964844 444.027344 516.371094 444.027344 C 521.433594 444.027344 526.40625 442.371094 530.546875 439.058594 L 636.492188 353.824219 C 638.792969 351.890625 641.828125 350.878906 644.867188 350.878906 L 869.640625 350.878906 L 869.640625 664.382812 C 869.640625 667.054688 867.710938 668.25 866.972656 668.617188 C 866.238281 668.984375 864.210938 669.722656 862.09375 668.066406 L 756.152344 582.832031 C 750.628906 578.320312 743.632812 575.929688 736.542969 575.929688 L 310.375 575.929688 Z M 1072.972656 476.980469 C 1073.613281 476.980469 1075.273438 478.636719 1075.273438 481.765625 L 1075.273438 787.265625 C 1075.273438 790.394531 1073.523438 792.050781 1072.972656 792.050781 L 617.53125 792.050781 C 613.386719 792.050781 610.074219 788.644531 610.074219 784.410156 L 610.074219 749.984375 C 610.074219 737.46875 602.617188 726.332031 591.113281 721.453125 L 530.640625 696.324219 C 528.707031 695.496094 528.523438 693.929688 528.523438 693.011719 C 528.523438 692.089844 528.796875 690.523438 530.640625 689.695312 L 591.113281 664.566406 C 602.617188 659.691406 610.074219 648.550781 610.074219 636.035156 L 610.074219 593.96875 L 736.359375 593.96875 C 739.398438 593.96875 742.4375 595.074219 744.738281 596.914062 L 850.679688 682.148438 C 854.824219 685.460938 859.792969 687.121094 864.855469 687.121094 C 868.167969 687.121094 871.484375 686.382812 874.703125 685.003906 C 882.621094 681.136719 887.589844 673.3125 887.589844 664.476562 L 887.589844 476.980469 Z M 644.777344 333.019531 C 637.6875 333.019531 630.601562 335.414062 625.078125 339.925781 L 519.132812 425.15625 C 517.109375 426.816406 515.082031 426.078125 514.253906 425.710938 C 513.425781 425.34375 511.675781 424.144531 511.675781 421.476562 L 511.675781 22.734375 C 511.675781 20.15625 513.703125 17.949219 516.28125 17.949219 L 1070.667969 17.949219 C 1073.246094 17.949219 1075.363281 20.066406 1075.363281 22.734375 L 1075.363281 328.234375 C 1075.363281 330.8125 1073.339844 333.019531 1070.667969 333.019531 Z M 644.777344 333.019531 " fill-opacity="1" fill-rule="nonzero"/></g><path fill="#ffffff" d="M 1003.660156 54.03125 L 583.289062 54.03125 C 568.378906 54.03125 556.320312 66.179688 556.320312 81 C 556.320312 95.820312 568.378906 107.96875 583.289062 107.96875 L 1003.660156 107.96875 C 1018.480469 107.96875 1030.628906 95.820312 1030.628906 81 C 1030.628906 66.179688 1018.480469 54.03125 1003.660156 54.03125 Z M 1003.660156 90.019531 L 583.289062 90.019531 C 578.320312 90.019531 574.269531 85.96875 574.269531 81 C 574.269531 76.03125 578.320312 71.980469 583.289062 71.980469 L 1003.660156 71.980469 C 1008.632812 71.980469 1012.679688 76.03125 1012.679688 81 C 1012.679688 85.96875 1008.632812 90.019531 1003.660156 90.019531 Z M 1003.660156 90.019531 " fill-opacity="1" fill-rule="nonzero"/><path fill="#ffffff" d="M 583.289062 197.988281 L 699.359375 197.988281 C 714.269531 197.988281 726.328125 185.839844 726.328125 171.019531 C 726.328125 156.199219 714.269531 144.050781 699.359375 144.050781 L 583.289062 144.050781 C 568.378906 144.050781 556.320312 156.199219 556.320312 171.019531 C 556.320312 185.839844 568.378906 197.988281 583.289062 197.988281 Z M 583.289062 162 L 699.359375 162 C 704.328125 162 708.378906 166.050781 708.378906 171.019531 C 708.378906 175.992188 704.328125 180.039062 699.359375 180.039062 L 583.289062 180.039062 C 578.320312 180.039062 574.269531 175.992188 574.269531 171.019531 C 574.269531 166.050781 578.320312 162 583.289062 162 Z M 583.289062 162 " fill-opacity="1" fill-rule="nonzero"/><path fill="#ffffff" d="M 1003.660156 143.960938 L 789.101562 143.960938 C 774.191406 143.960938 762.132812 156.109375 762.132812 170.929688 C 762.132812 185.746094 774.191406 197.898438 789.101562 197.898438 L 1003.660156 197.898438 C 1018.480469 197.898438 1030.628906 185.746094 1030.628906 170.929688 C 1030.628906 156.109375 1018.480469 143.960938 1003.660156 143.960938 Z M 1003.660156 180.039062 L 789.101562 180.039062 C 784.132812 180.039062 780.082031 175.992188 780.082031 171.019531 C 780.082031 166.050781 784.132812 162 789.101562 162 L 1003.660156 162 C 1008.632812 162 1012.679688 166.050781 1012.679688 171.019531 C 1012.679688 175.992188 1008.632812 180.039062 1003.660156 180.039062 Z M 1003.660156 180.039062 " fill-opacity="1" fill-rule="nonzero"/><path fill="#ffffff" d="M 896.335938 233.980469 L 583.289062 233.980469 C 568.378906 233.980469 556.320312 246.128906 556.320312 260.949219 C 556.320312 275.769531 568.378906 287.917969 583.289062 287.917969 L 896.335938 287.917969 C 911.15625 287.917969 923.304688 275.769531 923.304688 260.949219 C 923.304688 246.128906 911.15625 233.980469 896.335938 233.980469 Z M 896.335938 269.96875 L 583.289062 269.96875 C 578.320312 269.96875 574.269531 265.917969 574.269531 260.949219 C 574.269531 255.976562 578.320312 251.929688 583.289062 251.929688 L 896.335938 251.929688 C 901.304688 251.929688 905.355469 255.976562 905.355469 260.949219 C 905.355469 265.917969 901.214844 269.96875 896.335938 269.96875 Z M 896.335938 269.96875 " fill-opacity="1" fill-rule="nonzero"/><g clip-path="url(#2d0b459723)"><path fill="#ffffff" d="M 411.808594 694.390625 C 418.066406 686.660156 422.027344 676.808594 422.027344 666.039062 C 422.027344 641.1875 401.960938 621.03125 377.292969 621.03125 C 352.53125 621.03125 332.464844 641.1875 332.464844 666.039062 C 332.464844 676.808594 336.421875 686.660156 342.683594 694.390625 C 308.992188 700.925781 283.3125 730.75 283.3125 766.460938 L 283.3125 783.765625 C 283.3125 798.21875 295.09375 810 309.636719 810 L 445.128906 810 C 459.578125 810 471.453125 798.21875 471.453125 783.675781 L 471.453125 766.371094 C 471.363281 730.75 445.679688 700.925781 411.808594 694.390625 Z M 377.382812 638.980469 C 392.109375 638.980469 404.078125 651.128906 404.078125 665.949219 C 404.078125 680.769531 392.109375 692.917969 377.382812 692.917969 C 362.5625 692.917969 350.597656 680.769531 350.597656 665.949219 C 350.507812 651.128906 362.472656 638.980469 377.382812 638.980469 Z M 453.320312 783.675781 C 453.320312 788.183594 449.640625 791.960938 445.035156 791.960938 L 309.636719 791.960938 C 305.035156 791.960938 301.355469 788.183594 301.355469 783.675781 L 301.355469 766.371094 C 301.355469 735.8125 326.207031 710.960938 356.765625 710.960938 L 397.910156 710.960938 C 428.46875 710.960938 453.320312 735.8125 453.320312 766.371094 Z M 453.320312 783.675781 " fill-opacity="1" fill-rule="nonzero"/></g></svg>