<svg xmlns="http://www.w3.org/2000/svg" xmlns:xlink="http://www.w3.org/1999/xlink" width="1920" zoomAndPan="magnify" viewBox="0 0 1440 809.999993" height="1080" preserveAspectRatio="xMidYMid meet" version="1.0"><path fill="#ffffff" d="M 1206.867188 756.109375 C 1221.710938 741.261719 1221.710938 717.191406 1206.867188 702.34375 L 1140.511719 635.988281 L 1187.332031 617.839844 C 1219.878906 605.222656 1219.644531 559.089844 1186.976562 546.800781 L 1143.957031 530.621094 L 1143.957031 120.671875 C 1143.957031 106.945312 1133.894531 95.117188 1120.292969 93.289062 C 1109.570312 91.847656 1098.800781 90.898438 1088.035156 89.835938 C 1087.027344 77.136719 1077.53125 66.5625 1064.765625 64.910156 C 1047.980469 62.734375 1031.03125 61.480469 1014.121094 60.664062 C 1013.265625 59.3125 1012.964844 58.84375 1012.109375 57.492188 C 1019.5 36 1005.40625 15.273438 985.25 12.886719 C 875.621094 0.03125 763.835938 35.28125 681.164062 114.925781 C 598.152344 34.945312 486.335938 0.140625 377.074219 12.890625 C 360.652344 14.835938 348.25 28.972656 348.230469 45.777344 L 348.210938 60.648438 C 331.285156 61.464844 314.332031 62.734375 297.578125 64.910156 C 284.804688 66.558594 275.316406 77.136719 274.300781 89.832031 C 263.46875 90.898438 252.617188 91.863281 241.875 93.316406 C 228.363281 95.140625 218.382812 106.886719 218.382812 120.527344 L 218.382812 690.167969 C 218.382812 707.9375 234.933594 720.816406 252.0625 716.664062 C 409.15625 678.929688 585.515625 684.941406 668.730469 699.480469 C 677.492188 701.011719 686.25 700.738281 695.015625 699.238281 C 763.722656 687.453125 857.472656 686.792969 926.515625 690.304688 L 958.480469 775.300781 C 970.769531 807.976562 1016.910156 808.207031 1029.523438 775.65625 L 1047.667969 728.835938 L 1114.027344 795.191406 C 1128.871094 810.035156 1152.945312 810.035156 1167.789062 795.191406 Z M 1106.9375 516.695312 L 1088.421875 509.734375 L 1088.421875 126.996094 C 1094.605469 127.636719 1100.769531 128.121094 1106.9375 128.894531 Z M 1051.402344 100.574219 L 1051.402344 495.804688 L 1014.214844 481.816406 C 1014.488281 336.96875 1014.378906 233.371094 1014.183594 97.621094 C 1026.59375 98.261719 1039.027344 99.152344 1051.402344 100.574219 Z M 977.09375 49.234375 C 977.164062 134.867188 977.558594 274.144531 977.21875 467.898438 L 899.214844 438.558594 C 868.636719 427.058594 838.75 456.945312 850.253906 487.523438 L 862.542969 520.199219 C 797.347656 534.753906 743.734375 565.496094 699.683594 609.125 L 699.683594 149.167969 C 775.414062 71.78125 877.019531 38.679688 977.09375 49.234375 Z M 889.667969 592.324219 C 836.484375 596.660156 784.652344 608.15625 734.871094 626.738281 C 777.429688 587.933594 824.449219 565.769531 875.71875 555.242188 Z M 385.246094 49.234375 C 485.566406 38.566406 587.210938 72.074219 662.65625 149.164062 L 662.65625 609.125 C 588.144531 535.320312 487.929688 502.53125 385.222656 513.566406 C 384.792969 321.550781 385.046875 206.628906 385.246094 49.234375 Z M 310.941406 100.574219 C 323.292969 99.152344 335.730469 98.273438 348.160156 97.632812 C 347.953125 244.496094 347.839844 353.492188 348.203125 518.058594 C 348.242188 537.644531 365.183594 553.191406 384.972656 550.863281 C 471.808594 540.351562 559.421875 564.695312 627.464844 626.738281 C 526.308594 588.976562 417 580.441406 310.9375 601.734375 L 310.9375 100.574219 Z M 255.40625 677.855469 L 255.40625 128.894531 C 261.558594 128.132812 267.734375 127.636719 273.917969 126.996094 L 273.917969 613.867188 C 273.917969 631.296875 290.058594 644.238281 307.128906 640.378906 C 399.796875 619.773438 498.074219 623.054688 592.726562 653.859375 C 458.390625 645.53125 347.972656 656.785156 255.40625 677.855469 Z M 769.570312 653.875 C 813.402344 639.605469 857.371094 631.269531 903.25 628.433594 L 912.34375 652.617188 C 865.207031 650.957031 815.921875 651.007812 769.570312 653.875 Z M 1140.207031 769.003906 L 1055.539062 684.335938 C 1043.960938 672.757812 1027.109375 679.445312 1022.164062 692.210938 L 994.050781 764.714844 L 886.179688 473.222656 L 1174.589844 582.378906 C 1174.589844 583.449219 1103.960938 610.449219 1102.96875 610.832031 C 1088.390625 616.507812 1086.515625 634.316406 1096.949219 644.902344 L 1180.695312 729.925781 Z M 1140.207031 769.003906 " fill-opacity="1" fill-rule="nonzero"/></svg>